ffmpeg version 4.1.1-0york1~16.04 Copyright (c) 2000-2019 the FFmpeg developers
  built with gcc 5.4.0 (Ubuntu 5.4.0-6ubuntu1~16.04.11) 20160609
  configuration: --prefix=/usr --extra-version='0york1~16.04' --toolchain=hardened --libdir=/usr/lib/x86_64-linux-gnu --incdir=/usr/include/x86_64-linux-gnu --arch=amd64 --enable-gpl --disable-stripping --enable-avresample --disable-filter=resample --enable-avisynth --enable-gnutls --enable-ladspa --enable-libaom --enable-libass --enable-libbluray --enable-libbs2b --enable-libcaca --enable-libcdio --enable-libcodec2 --enable-libflite --enable-libfontconfig --enable-libfreetype --enable-libfribidi --enable-libgme --enable-libgsm --enable-libjack --enable-libmp3lame --enable-libmysofa --enable-libopenjpeg --enable-libopenmpt --enable-libopus --enable-libpulse --enable-librsvg --enable-librubberband --enable-libshine --enable-libsnappy --enable-libsoxr --enable-libspeex --enable-libssh --enable-libtheora --enable-libtwolame --enable-libvidstab --enable-libvorbis --enable-libvpx --enable-libwavpack --enable-libwebp --enable-libx265 --enable-libxml2 --enable-libxvid --enable-libzmq --enable-libzvbi --enable-lv2 --enable-omx --enable-openal --enable-opengl --enable-sdl2 --enable-nonfree --enable-libfdk-aac --enable-libdc1394 --enable-libdrm --enable-libiec61883 --enable-chromaprint --enable-frei0r --enable-libx264 --enable-shared
  libavutil      56. 22.100 / 56. 22.100
  libavcodec     58. 35.100 / 58. 35.100
  libavformat    58. 20.100 / 58. 20.100
  libavdevice    58.  5.100 / 58.  5.100
  libavfilter     7. 40.101 /  7. 40.101
  libavresample   4.  0.  0 /  4.  0.  0
  libswscale      5.  3.100 /  5.  3.100
  libswresample   3.  3.100 /  3.  3.100
  libpostproc    55.  3.100 / 55.  3.100
Input #0, mov,mp4,m4a,3gp,3g2,mj2, from '/home/gdo/html/playtube//upload/videos/2019/03/wHuVTP6rZl35ouwhgXMu_31_f0580d0dab688b5d1de72902951bc420_video.mp4':
  Metadata:
    major_brand     : isom
    minor_version   : 1
    compatible_brands: isomavc1mp42
    creation_time   : 2019-01-29T12:06:12.000000Z
  Duration: 00:02:29.40, start: 0.000000, bitrate: 1133 kb/s
    Stream #0:0(und): Video: h264 (Constrained Baseline) (avc1 / 0x31637661), yuv420p(tv, bt709), 1920x1080 [SAR 1:1 DAR 16:9], 1020 kb/s, 24 fps, 24 tbr, 24 tbn, 48 tbc (default)
    Metadata:
      creation_time   : 2019-01-29T12:05:44.000000Z
    Stream #0:1(und): Audio: aac (LC) (mp4a / 0x6134706D), 48000 Hz, stereo, fltp, 110 kb/s (default)
    Metadata:
      creation_time   : 2019-01-29T12:05:44.000000Z
Stream mapping:
  Stream #0:0 -> #0:0 (h264 (native) -> h264 (libx264))
  Stream #0:1 -> #0:1 (aac (native) -> aac (native))
Press [q] to stop, [?] for help
[libx264 @ 0x55ea2302b980] using SAR=1/1
[libx264 @ 0x55ea2302b980] using cpu capabilities: MMX2 SSE2Fast SSSE3 SSE4.2 AVX FMA3 BMI2 AVX2
[libx264 @ 0x55ea2302b980] profile High, level 4.0
[libx264 @ 0x55ea2302b980] 264 - core 155 r2917 0a84d98 - H.264/MPEG-4 AVC codec - Copyleft 2003-2018 - http://www.videolan.org/x264.html - options: cabac=1 ref=2 deblock=1:0:0 analyse=0x3:0x113 me=hex subme=6 psy=1 psy_rd=1.00:0.00 mixed_ref=1 me_range=16 chroma_me=1 trellis=1 8x8dct=1 cqm=0 deadzone=21,11 fast_pskip=1 chroma_qp_offset=-2 threads=1 lookahead_threads=1 sliced_threads=0 nr=0 decimate=1 interlaced=0 bluray_compat=0 constrained_intra=0 bframes=3 b_pyramid=2 b_adapt=1 b_bias=0 direct=1 weightb=1 open_gop=0 weightp=1 keyint=250 keyint_min=24 scenecut=40 intra_refresh=0 rc_lookahead=30 rc=crf mbtree=1 crf=26.0 qcomp=0.60 qpmin=0 qpmax=69 qpstep=4 ip_ratio=1.40 aq=1:1.00
Output #0, mp4, to '/home/gdo/html/playtube//upload/videos/2019/03/wHuVTP6rZl35ouwhgXMu_31_f0580d0dab688b5d1de72902951bc420_video_1080p_converted.mp4':
  Metadata:
    major_brand     : isom
    minor_version   : 1
    compatible_brands: isomavc1mp42
    encoder         : Lavf58.20.100
    Stream #0:0(und): Video: h264 (libx264) (avc1 / 0x31637661), yuv420p(progressive), 1920x1080 [SAR 1:1 DAR 16:9], q=-1--1, 24 fps, 12288 tbn, 24 tbc (default)
    Metadata:
      creation_time   : 2019-01-29T12:05:44.000000Z
      encoder         : Lavc58.35.100 libx264
    Side data:
      cpb: bitrate max/min/avg: 0/0/0 buffer size: 0 vbv_delay: -1
    Stream #0:1(und): Audio: aac (LC) (mp4a / 0x6134706D), 48000 Hz, stereo, fltp, 128 kb/s (default)
    Metadata:
      creation_time   : 2019-01-29T12:05:44.000000Z
      encoder         : Lavc58.35.100 aac
frame=   25 fps=0.0 q=0.0 size=       0kB time=00:00:00.49 bitrate=   0.8kbits/s speed=0.923x    frame=   33 fps= 23 q=31.0 size=       0kB time=00:00:00.96 bitrate=   0.4kbits/s speed=0.661x    frame=   40 fps= 20 q=31.0 size=       0kB time=00:00:01.45 bitrate=   0.3kbits/s speed=0.737x    frame=   45 fps= 18 q=31.0 size=       0kB time=00:00:01.45 bitrate=   0.3kbits/s speed=0.569x    frame=   49 fps= 15 q=31.0 size=       0kB time=00:00:01.47 bitrate=   0.3kbits/s speed=0.459x    frame=   54 fps= 14 q=31.0 size=       0kB time=00:00:01.94 bitrate=   0.2kbits/s speed=0.513x    frame=   59 fps= 13 q=31.0 size=       0kB time=00:00:01.94 bitrate=   0.2kbits/s speed=0.443x    frame=   63 fps= 13 q=31.0 size=     256kB time=00:00:02.43 bitrate= 862.5kbits/s speed=0.486x    frame=   67 fps= 12 q=31.0 size=     256kB time=00:00:02.43 bitrate= 862.5kbits/s speed=0.436x    frame=   72 fps= 12 q=31.0 size=     256kB time=00:00:02.43 bitrate= 862.5kbits/s speed= 0.4x    frame=   76 fps= 12 q=31.0 size=     512kB time=00:00:02.92 bitrate=1435.2kbits/s speed=0.443x    frame=   80 fps= 11 q=31.0 size=     512kB time=00:00:02.92 bitrate=1435.2kbits/s speed=0.408x    frame=   84 fps= 11 q=31.0 size=     512kB time=00:00:02.94 bitrate=1424.8kbits/s speed=0.381x    frame=   90 fps= 11 q=28.0 size=     512kB time=00:00:03.41 bitrate=1228.9kbits/s speed=0.411x    frame=   96 fps= 11 q=31.0 size=     512kB time=00:00:03.41 bitrate=1228.9kbits/s speed=0.385x    frame=  103 fps= 11 q=31.0 size=     768kB time=00:00:03.90 bitrate=1611.6kbits/s speed=0.416x    frame=  108 fps= 11 q=31.0 size=     768kB time=00:00:03.92 bitrate=1602.9kbits/s speed=0.397x    frame=  114 fps= 11 q=31.0 size=     768kB time=00:00:04.39 bitrate=1431.7kbits/s speed=0.421x    frame=  119 fps= 11 q=31.0 size=     768kB time=00:00:04.41 bitrate=1424.8kbits/s speed=0.402x    frame=  126 fps= 11 q=31.0 size=     768kB time=00:00:04.88 bitrate=1287.9kbits/s speed=0.425x    frame=  131 fps= 11 q=31.0 size=    1024kB time=00:00:04.90 bitrate=1709.7kbits/s speed=0.408x    frame=  139 fps= 11 q=31.0 size=    1024kB time=00:00:05.37 bitrate=1560.5kbits/s speed=0.427x    frame=  145 fps= 11 q=31.0 size=    1024kB time=00:00:05.86 bitrate=1429.9kbits/s speed=0.447x    frame=  152 fps= 11 q=31.0 size=    1024kB time=00:00:05.86 bitrate=1429.9kbits/s speed=0.43x    frame=  160 fps= 11 q=31.0 size=    1024kB time=00:00:06.35 bitrate=1319.6kbits/s speed=0.448x    frame=  167 fps= 11 q=31.0 size=    1280kB time=00:00:06.37 bitrate=1643.9kbits/s speed=0.432x    frame=  176 fps= 12 q=31.0 size=    1280kB time=00:00:06.84 bitrate=1531.3kbits/s speed=0.448x    frame=  185 fps= 12 q=31.0 size=    1280kB time=00:00:07.33 bitrate=1428.9kbits/s speed=0.464x    frame=  194 fps= 12 q=31.0 size=    1280kB time=00:00:07.82 bitrate=1339.3kbits/s speed=0.479x    frame=  202 fps= 12 q=31.0 size=    1280kB time=00:00:07.82 bitrate=1339.3kbits/s speed=0.463x    frame=  210 fps= 12 q=31.0 size=    1280kB time=00:00:08.32 bitrate=1260.4kbits/s speed=0.477x    frame=  217 fps= 12 q=31.0 size=    1280kB time=00:00:08.81 bitrate=1190.2kbits/s speed=0.487x    frame=  223 fps= 12 q=31.0 size=    1536kB time=00:00:08.81 bitrate=1428.2kbits/s speed=0.472x    frame=  229 fps= 12 q=31.0 size=    1536kB time=00:00:09.30 bitrate=1352.8kbits/s speed=0.482x    frame=  235 fps= 12 q=31.0 size=    1536kB time=00:00:09.30 bitrate=1352.8kbits/s speed=0.47x    frame=  241 fps= 12 q=31.0 size=    1536kB time=00:00:09.79 bitrate=1285.1kbits/s speed=0.481x    frame=  247 fps= 12 q=31.0 size=    1792kB time=00:00:09.79 bitrate=1499.2kbits/s speed=0.468x    frame=  252 fps= 12 q=31.0 size=    1792kB time=00:00:10.28 bitrate=1427.7kbits/s speed=0.479x    frame=  258 fps= 12 q=31.0 size=    1792kB time=00:00:10.28 bitrate=1427.7kbits/s speed=0.468x    frame=  264 fps= 12 q=31.0 size=    1792kB time=00:00:10.77 bitrate=1362.7kbits/s speed=0.478x    frame=  271 fps= 12 q=31.0 size=    1792kB time=00:00:10.77 bitrate=1362.7kbits/s speed=0.466x    frame=  278 fps= 12 q=31.0 size=    2048kB time=00:00:11.26 bitrate=1489.5kbits/s speed=0.477x    frame=  284 fps= 12 q=31.0 size=    2048kB time=00:00:11.28 bitrate=1486.7kbits/s speed=0.466x    frame=  291 fps= 12 q=31.0 size=    2048kB time=00:00:11.75 bitrate=1427.3kbits/s speed=0.475x    frame=  298 fps= 12 q=31.0 size=    2048kB time=00:00:12.24 bitrate=1370.1kbits/s speed=0.484x    frame=  308 fps= 12 q=31.0 size=    2048kB time=00:00:12.26 bitrate=1367.7kbits/s speed=0.475x    frame=  318 fps= 12 q=31.0 size=    2048kB time=00:00:12.73 bitrate=1317.3kbits/s speed=0.483x    frame=  327 fps= 12 q=31.0 size=    2304kB time=00:00:13.22 bitrate=1427.0kbits/s speed=0.492x    frame=  336 fps= 12 q=31.0 size=    2304kB time=00:00:13.71 bitrate=1376.0kbits/s speed=0.501x    frame=  343 fps= 12 q=31.0 size=    2304kB time=00:00:13.73 bitrate=1373.8kbits/s speed=0.492x    frame=  354 fps= 12 q=31.0 size=    2304kB time=00:00:14.20 bitrate=1328.5kbits/s speed=0.499x    frame=  366 fps= 13 q=31.0 size=    2304kB time=00:00:14.69 bitrate=1284.1kbits/s speed=0.507x    frame=  379 fps= 13 q=31.0 size=    2304kB time=00:00:15.21 bitrate=1240.9kbits/s speed=0.516x    frame=  392 fps= 13 q=31.0 size=    2304kB time=00:00:16.17 bitrate=1167.2kbits/s speed=0.539x    frame=  402 fps= 13 q=31.0 size=    2560kB time=00:00:16.36 bitrate=1281.7kbits/s speed=0.536x    frame=  413 fps= 13 q=31.0 size=    2560kB time=00:00:16.66 bitrate=1258.7kbits/s speed=0.536x    frame=  421 fps= 13 q=31.0 size=    2560kB time=00:00:17.15 bitrate=1222.7kbits/s speed=0.542x    frame=  431 fps= 13 q=31.0 size=    2560kB time=00:00:17.64 bitrate=1188.7kbits/s speed=0.548x    frame=  440 fps= 13 q=31.0 size=    2560kB time=00:00:18.13 bitrate=1156.5kbits/s speed=0.554x    frame=  448 fps= 13 q=31.0 size=    2560kB time=00:00:18.13 bitrate=1156.5kbits/s speed=0.545x    frame=  456 fps= 13 q=31.0 size=    2816kB time=00:00:18.62 bitrate=1238.7kbits/s speed=0.55x    frame=  465 fps= 14 q=31.0 size=    2816kB time=00:00:19.11 bitrate=1206.9kbits/s speed=0.556x    frame=  475 fps= 14 q=31.0 size=    2816kB time=00:00:19.60 bitrate=1176.7kbits/s speed=0.561x    frame=  485 fps= 14 q=31.0 size=    2816kB time=00:00:19.62 bitrate=1175.4kbits/s speed=0.554x    frame=  493 fps= 14 q=31.0 size=    2816kB time=00:00:20.09 bitrate=1147.9kbits/s speed=0.558x    frame=  498 fps= 14 q=31.0 size=    2816kB time=00:00:20.58 bitrate=1120.6kbits/s speed=0.562x    frame=  503 fps= 14 q=31.0 size=    2816kB time=00:00:20.58 bitrate=1120.6kbits/s speed=0.554x    frame=  508 fps= 13 q=31.0 size=    3072kB time=00:00:20.58 bitrate=1222.5kbits/s speed=0.546x    frame=  512 fps= 13 q=31.0 size=    3072kB time=00:00:21.07 bitrate=1194.0kbits/s speed=0.552x    frame=  517 fps= 13 q=31.0 size=    3072kB time=00:00:21.07 bitrate=1194.0kbits/s speed=0.543x    frame=  522 fps= 13 q=31.0 size=    3072kB time=00:00:21.56 bitrate=1166.8kbits/s speed=0.548x    frame=  527 fps= 13 q=31.0 size=    3072kB time=00:00:21.56 bitrate=1166.8kbits/s speed=0.541x    frame=  531 fps= 13 q=31.0 size=    3328kB time=00:00:21.56 bitrate=1264.1kbits/s speed=0.534x    frame=  536 fps= 13 q=31.0 size=    3328kB time=00:00:22.05 bitrate=1235.9kbits/s speed=0.539x    frame=  542 fps= 13 q=31.0 size=    3328kB time=00:00:22.05 bitrate=1235.9kbits/s speed=0.532x    frame=  548 fps= 13 q=31.0 size=    3328kB time=00:00:22.54 bitrate=1209.1kbits/s speed=0.536x    frame=  555 fps= 13 q=31.0 size=    3328kB time=00:00:22.54 bitrate=1209.1kbits/s speed=0.53x    frame=  562 fps= 13 q=31.0 size=    3328kB time=00:00:23.04 bitrate=1183.3kbits/s speed=0.535x    frame=  567 fps= 13 q=31.0 size=    3584kB time=00:00:23.04 bitrate=1274.3kbits/s speed=0.528x    frame=  574 fps= 13 q=31.0 size=    3584kB time=00:00:23.53 bitrate=1247.8kbits/s speed=0.533x    frame=  579 fps= 13 q=31.0 size=    3584kB time=00:00:23.53 bitrate=1247.8kbits/s speed=0.527x    frame=  586 fps= 13 q=31.0 size=    3584kB time=00:00:24.02 bitrate=1222.3kbits/s speed=0.531x    frame=  590 fps= 13 q=31.0 size=    3840kB time=00:00:24.02 bitrate=1309.6kbits/s speed=0.525x    frame=  594 fps= 13 q=31.0 size=    3840kB time=00:00:24.51 bitrate=1283.4kbits/s speed=0.528x    frame=  598 fps= 13 q=31.0 size=    4096kB time=00:00:24.51 bitrate=1368.9kbits/s speed=0.52x    frame=  602 fps= 13 q=31.0 size=    4096kB time=00:00:24.51 bitrate=1368.9kbits/s speed=0.514x    frame=  606 fps= 13 q=31.0 size=    4096kB time=00:00:25.00 bitrate=1342.0kbits/s speed=0.517x    frame=  610 fps= 12 q=31.0 size=    4352kB time=00:00:25.00 bitrate=1425.9kbits/s speed=0.511x    frame=  614 fps= 12 q=31.0 size=    4352kB time=00:00:25.00 bitrate=1425.9kbits/s speed=0.504x    frame=  618 fps= 12 q=31.0 size=    4608kB time=00:00:25.49 bitrate=1480.7kbits/s speed=0.508x    frame=  622 fps= 12 q=31.0 size=    4608kB time=00:00:25.49 bitrate=1480.7kbits/s speed=0.502x    frame=  626 fps= 12 q=31.0 size=    4864kB time=00:00:25.49 bitrate=1563.0kbits/s speed=0.496x    frame=  630 fps= 12 q=31.0 size=    4864kB time=00:00:25.98 bitrate=1533.5kbits/s speed= 0.5x    frame=  634 fps= 12 q=31.0 size=    5120kB time=00:00:25.98 bitrate=1614.2kbits/s speed=0.494x    frame=  638 fps= 12 q=31.0 size=    5120kB time=00:00:25.98 bitrate=1614.2kbits/s speed=0.488x    frame=  642 fps= 12 q=31.0 size=    5376kB time=00:00:26.47 bitrate=1663.5kbits/s speed=0.492x    frame=  646 fps= 12 q=31.0 size=    5376kB time=00:00:26.47 bitrate=1663.5kbits/s speed=0.487x    frame=  649 fps= 12 q=31.0 size=    5632kB time=00:00:26.49 bitrate=1741.3kbits/s speed=0.482x    frame=  654 fps= 12 q=31.0 size=    5632kB time=00:00:26.96 bitrate=1711.0kbits/s speed=0.485x    frame=  658 fps= 12 q=31.0 size=    5888kB time=00:00:26.96 bitrate=1788.8kbits/s speed=0.481x    frame=  661 fps= 12 q=31.0 size=    5888kB time=00:00:26.98 bitrate=1787.4kbits/s speed=0.477x    frame=  666 fps= 12 q=31.0 size=    5888kB time=00:00:27.45 bitrate=1756.8kbits/s speed=0.481x    frame=  671 fps= 12 q=31.0 size=    6144kB time=00:00:27.45 bitrate=1833.2kbits/s speed=0.476x    frame=  675 fps= 12 q=31.0 size=    6144kB time=00:00:27.94 bitrate=1801.0kbits/s speed=0.48x    frame=  678 fps= 12 q=31.0 size=    6144kB time=00:00:27.94 bitrate=1801.0kbits/s speed=0.475x    frame=  682 fps= 11 q=31.0 size=    6400kB time=00:00:27.94 bitrate=1876.0kbits/s speed=0.471x    frame=  685 fps= 11 q=28.0 size=    6400kB time=00:00:27.96 bitrate=1874.6kbits/s speed=0.467x    frame=  691 fps= 11 q=31.0 size=    6400kB time=00:00:28.43 bitrate=1843.7kbits/s speed=0.47x    frame=  695 fps= 11 q=31.0 size=    6400kB time=00:00:28.43 bitrate=1843.7kbits/s speed=0.466x    frame=  700 fps= 11 q=31.0 size=    6400kB time=00:00:28.92 bitrate=1812.4kbits/s speed=0.47x    frame=  705 fps= 11 q=31.0 size=    6656kB time=00:00:28.92 bitrate=1884.9kbits/s speed=0.466x    frame=  710 fps= 11 q=31.0 size=    6656kB time=00:00:29.41 bitrate=1853.5kbits/s speed=0.47x    frame=  716 fps= 11 q=31.0 size=    6656kB time=00:00:29.41 bitrate=1853.5kbits/s speed=0.466x    frame=  720 fps= 11 q=31.0 size=    6912kB time=00:00:29.44 bitrate=1923.4kbits/s speed=0.462x    frame=  726 fps= 11 q=31.0 size=    6912kB time=00:00:29.90 bitrate=1893.2kbits/s speed=0.465x    frame=  731 fps= 11 q=31.0 size=    6912kB time=00:00:29.90 bitrate=1893.2kbits/s speed=0.461x    frame=  736 fps= 11 q=31.0 size=    6912kB time=00:00:30.40 bitrate=1862.6kbits/s speed=0.465x    frame=  742 fps= 11 q=31.0 size=    6912kB time=00:00:30.40 bitrate=1862.6kbits/s speed=0.461x    frame=  748 fps= 11 q=31.0 size=    7168kB time=00:00:30.89 bitrate=1900.9kbits/s speed=0.465x    frame=  755 fps= 11 q=31.0 size=    7168kB time=00:00:30.89 bitrate=1900.9kbits/s speed=0.461x    frame=  761 fps= 11 q=31.0 size=    7168kB time=00:00:31.38 bitrate=1871.2kbits/s speed=0.464x    frame=  767 fps= 11 q=31.0 size=    7168kB time=00:00:31.40 bitrate=1869.9kbits/s speed=0.461x    frame=  775 fps= 11 q=31.0 size=    7168kB time=00:00:31.87 bitrate=1842.4kbits/s speed=0.464x    frame=  781 fps= 11 q=31.0 size=    7168kB time=00:00:32.36 bitrate=1814.5kbits/s speed=0.467x    frame=  788 fps= 11 q=31.0 size=    7424kB time=00:00:32.36 bitrate=1879.3kbits/s speed=0.464x    frame=  795 fps= 11 q=31.0 size=    7424kB time=00:00:32.85 bitrate=1851.2kbits/s speed=0.467x    frame=  805 fps= 11 q=31.0 size=    7424kB time=00:00:33.34 bitrate=1824.0kbits/s speed=0.47x    frame=  817 fps= 11 q=31.0 size=    7424kB time=00:00:33.83 bitrate=1797.5kbits/s speed=0.474x    frame=  829 fps= 12 q=31.0 size=    7424kB time=00:00:34.32 bitrate=1771.8kbits/s speed=0.477x    frame=  842 fps= 12 q=31.0 size=    7424kB time=00:00:34.81 bitrate=1746.8kbits/s speed=0.481x    frame=  856 fps= 12 q=31.0 size=    7424kB time=00:00:35.30 bitrate=1722.6kbits/s speed=0.484x    frame=  867 fps= 12 q=31.0 size=    7424kB time=00:00:35.79 bitrate=1698.9kbits/s speed=0.487x    frame=  877 fps= 12 q=31.0 size=    7424kB time=00:00:36.28 bitrate=1676.0kbits/s speed=0.49x    frame=  887 fps= 12 q=31.0 size=    7424kB time=00:00:36.77 bitrate=1653.6kbits/s speed=0.493x    frame=  897 fps= 12 q=31.0 size=    7680kB time=00:00:36.80 bitrate=1709.6kbits/s speed=0.49x    frame=  908 fps= 12 q=31.0 size=    7680kB time=00:00:37.63 bitrate=1671.8kbits/s speed=0.498x    frame=  920 fps= 12 q=31.0 size=    7680kB time=00:00:37.76 bitrate=1666.2kbits/s speed=0.496x    frame=  932 fps= 12 q=31.0 size=    7680kB time=00:00:38.27 bitrate=1643.9kbits/s speed=0.499x    frame=  947 fps= 12 q=31.0 size=    7680kB time=00:00:39.23 bitrate=1603.7kbits/s speed=0.509x    frame=  959 fps= 12 q=31.0 size=    7680kB time=00:00:39.72 bitrate=1583.9kbits/s speed=0.511x    frame=  971 fps= 12 q=31.0 size=    7680kB time=00:00:40.21 bitrate=1564.5kbits/s speed=0.514x    frame=  982 fps= 12 q=31.0 size=    7680kB time=00:00:40.70 bitrate=1545.7kbits/s speed=0.517x    frame=  991 fps= 12 q=31.0 size=    7936kB time=00:00:40.70 bitrate=1597.2kbits/s speed=0.513x    frame= 1002 fps= 13 q=31.0 size=    7936kB time=00:00:41.19 bitrate=1578.2kbits/s speed=0.516x    frame= 1013 fps= 13 q=31.0 size=    7936kB time=00:00:41.68 bitrate=1559.6kbits/s speed=0.519x    frame= 1022 fps= 13 q=31.0 size=    7936kB time=00:00:42.17 bitrate=1541.4kbits/s speed=0.521x    frame= 1035 fps= 13 q=31.0 size=    7936kB time=00:00:42.66 bitrate=1523.7kbits/s speed=0.524x    frame= 1046 fps= 13 q=31.0 size=    7936kB time=00:00:43.15 bitrate=1506.4kbits/s speed=0.526x    frame= 1058 fps= 13 q=31.0 size=    7936kB time=00:00:43.64 bitrate=1489.5kbits/s speed=0.529x    frame= 1070 fps= 13 q=31.0 size=    7936kB time=00:00:44.13 bitrate=1472.9kbits/s speed=0.532x    frame= 1082 fps= 13 q=31.0 size=    7936kB time=00:00:44.62 bitrate=1456.7kbits/s speed=0.534x    frame= 1093 fps= 13 q=31.0 size=    7936kB time=00:00:45.12 bitrate=1440.9kbits/s speed=0.537x    frame= 1103 fps= 13 q=31.0 size=    7936kB time=00:00:45.61 bitrate=1425.4kbits/s speed=0.539x    frame= 1113 fps= 13 q=31.0 size=    7936kB time=00:00:46.10 bitrate=1410.2kbits/s speed=0.542x    frame= 1123 fps= 13 q=31.0 size=    8192kB time=00:00:46.59 bitrate=1440.4kbits/s speed=0.544x    frame= 1132 fps= 13 q=31.0 size=    8192kB time=00:00:46.59 bitrate=1440.4kbits/s speed=0.541x    frame= 1142 fps= 13 q=31.0 size=    8192kB time=00:00:47.08 bitrate=1425.3kbits/s speed=0.543x    frame= 1152 fps= 13 q=31.0 size=    8192kB time=00:00:47.57 bitrate=1410.6kbits/s speed=0.546x    frame= 1159 fps= 13 q=28.0 size=    8192kB time=00:00:48.06 bitrate=1396.2kbits/s speed=0.548x    frame= 1168 fps= 13 q=31.0 size=    8192kB time=00:00:48.08 bitrate=1395.6kbits/s speed=0.545x    frame= 1178 fps= 13 q=31.0 size=    8192kB time=00:00:48.55 bitrate=1382.1kbits/s speed=0.548x    frame= 1188 fps= 13 q=31.0 size=    8192kB time=00:00:49.04 bitrate=1368.3kbits/s speed=0.55x    frame= 1202 fps= 13 q=31.0 size=    8192kB time=00:00:49.53 bitrate=1354.8kbits/s speed=0.552x    frame= 1215 fps= 13 q=31.0 size=    8192kB time=00:00:50.04 bitrate=1340.9kbits/s speed=0.555x    frame= 1228 fps= 14 q=31.0 size=    8192kB time=00:00:51.00 bitrate=1315.7kbits/s speed=0.562x    frame= 1241 fps= 14 q=31.0 size=    8192kB time=00:00:51.49 bitrate=1303.1kbits/s speed=0.564x    frame= 1250 fps= 14 q=31.0 size=    8192kB time=00:00:51.49 bitrate=1303.1kbits/s speed=0.561x    frame= 1262 fps= 14 q=31.0 size=    8448kB time=00:00:51.98 bitrate=1331.2kbits/s speed=0.563x    frame= 1274 fps= 14 q=31.0 size=    8448kB time=00:00:52.48 bitrate=1318.7kbits/s speed=0.565x    frame= 1285 fps= 14 q=31.0 size=    8448kB time=00:00:52.99 bitrate=1306.0kbits/s speed=0.567x    frame= 1299 fps= 14 q=31.0 size=    8448kB time=00:00:53.95 bitrate=1282.7kbits/s speed=0.575x    frame= 1313 fps= 14 q=31.0 size=    8448kB time=00:00:54.44 bitrate=1271.2kbits/s speed=0.577x    frame= 1324 fps= 14 q=31.0 size=    8448kB time=00:00:54.93 bitrate=1259.8kbits/s speed=0.578x    frame= 1336 fps= 14 q=31.0 size=    8448kB time=00:00:55.42 bitrate=1248.7kbits/s speed=0.58x    frame= 1349 fps= 14 q=31.0 size=    8448kB time=00:00:55.91 bitrate=1237.7kbits/s speed=0.582x    frame= 1361 fps= 14 q=31.0 size=    8448kB time=00:00:56.40 bitrate=1226.9kbits/s speed=0.584x    frame= 1373 fps= 14 q=31.0 size=    8448kB time=00:00:56.89 bitrate=1216.4kbits/s speed=0.586x    frame= 1387 fps= 14 q=31.0 size=    8448kB time=00:00:57.38 bitrate=1206.0kbits/s speed=0.588x    frame= 1400 fps= 14 q=31.0 size=    8448kB time=00:00:57.87 bitrate=1195.7kbits/s speed=0.59x    frame= 1410 fps= 14 q=31.0 size=    8448kB time=00:00:58.36 bitrate=1185.7kbits/s speed=0.592x    frame= 1419 fps= 14 q=31.0 size=    8448kB time=00:00:58.85 bitrate=1175.8kbits/s speed=0.594x    frame= 1430 fps= 14 q=31.0 size=    8448kB time=00:00:59.34 bitrate=1166.1kbits/s speed=0.596x    frame= 1440 fps= 14 q=31.0 size=    8704kB time=00:00:59.84 bitrate=1191.6kbits/s speed=0.597x    frame= 1450 fps= 14 q=31.0 size=    8704kB time=00:00:59.84 bitrate=1191.6kbits/s speed=0.594x    frame= 1461 fps= 14 q=31.0 size=    8704kB time=00:01:00.33 bitrate=1181.9kbits/s speed=0.596x    frame= 1471 fps= 14 q=31.0 size=    8704kB time=00:01:00.82 bitrate=1172.3kbits/s speed=0.597x    frame= 1484 fps= 15 q=31.0 size=    8704kB time=00:01:01.31 bitrate=1163.0kbits/s speed=0.599x    frame= 1499 fps= 15 q=31.0 size=    8704kB time=00:01:02.29 bitrate=1144.6kbits/s speed=0.606x    frame= 1509 fps= 15 q=31.0 size=    8704kB time=00:01:02.29 bitrate=1144.6kbits/s speed=0.603x    frame= 1521 fps= 15 q=31.0 size=    8704kB time=00:01:02.80 bitrate=1135.3kbits/s speed=0.605x    frame= 1533 fps= 15 q=31.0 size=    8704kB time=00:01:03.27 bitrate=1126.9kbits/s speed=0.606x    frame= 1544 fps= 15 q=31.0 size=    8704kB time=00:01:03.76 bitrate=1118.2kbits/s speed=0.608x    frame= 1555 fps= 15 q=31.0 size=    8960kB time=00:01:04.25 bitrate=1142.3kbits/s speed=0.609x    frame= 1568 fps= 15 q=31.0 size=    8960kB time=00:01:04.74 bitrate=1133.7kbits/s speed=0.611x    frame= 1580 fps= 15 q=31.0 size=    8960kB time=00:01:05.25 bitrate=1124.8kbits/s speed=0.613x    frame= 1593 fps= 15 q=31.0 size=    8960kB time=00:01:06.21 bitrate=1108.5kbits/s speed=0.619x    frame= 1605 fps= 15 q=31.0 size=    8960kB time=00:01:06.70 bitrate=1100.3kbits/s speed=0.62x    frame= 1615 fps= 15 q=31.0 size=    8960kB time=00:01:06.70 bitrate=1100.3kbits/s speed=0.617x    frame= 1623 fps= 15 q=31.0 size=    8960kB time=00:01:07.20 bitrate=1092.3kbits/s speed=0.618x    frame= 1631 fps= 15 q=31.0 size=    8960kB time=00:01:07.69 bitrate=1084.4kbits/s speed=0.62x    frame= 1638 fps= 15 q=31.0 size=    8960kB time=00:01:07.69 bitrate=1084.4kbits/s speed=0.617x    frame= 1645 fps= 15 q=31.0 size=    9216kB time=00:01:08.18 bitrate=1107.3kbits/s speed=0.618x    frame= 1650 fps= 15 q=31.0 size=    9216kB time=00:01:08.18 bitrate=1107.3kbits/s speed=0.615x    frame= 1657 fps= 15 q=31.0 size=    9216kB time=00:01:08.67 bitrate=1099.4kbits/s speed=0.616x    frame= 1667 fps= 15 q=31.0 size=    9216kB time=00:01:09.16 bitrate=1091.6kbits/s speed=0.618x    frame= 1679 fps= 15 q=31.0 size=    9216kB time=00:01:09.65 bitrate=1083.9kbits/s speed=0.619x    frame= 1692 fps= 15 q=31.0 size=    9216kB time=00:01:10.14 bitrate=1076.3kbits/s speed=0.621x    frame= 1703 fps= 15 q=31.0 size=    9216kB time=00:01:10.63 bitrate=1068.8kbits/s speed=0.622x    frame= 1716 fps= 15 q=31.0 size=    9472kB time=00:01:11.12 bitrate=1091.0kbits/s speed=0.624x    frame= 1727 fps= 15 q=31.0 size=    9472kB time=00:01:11.61 bitrate=1083.5kbits/s speed=0.625x    frame= 1739 fps= 15 q=31.0 size=    9472kB time=00:01:12.10 bitrate=1076.1kbits/s speed=0.627x    frame= 1752 fps= 15 q=31.0 size=    9472kB time=00:01:12.59 bitrate=1068.8kbits/s speed=0.628x    frame= 1767 fps= 15 q=31.0 size=    9472kB time=00:01:13.08 bitrate=1061.7kbits/s speed=0.629x    frame= 1780 fps= 15 q=31.0 size=    9472kB time=00:01:13.57 bitrate=1054.6kbits/s speed=0.631x    frame= 1791 fps= 15 q=31.0 size=    9472kB time=00:01:14.06 bitrate=1047.6kbits/s speed=0.632x    frame= 1803 fps= 15 q=31.0 size=    9472kB time=00:01:14.58 bitrate=1040.4kbits/s speed=0.634x    frame= 1815 fps= 15 q=31.0 size=    9472kB time=00:01:15.05 bitrate=1033.9kbits/s speed=0.635x    frame= 1826 fps= 15 q=31.0 size=    9472kB time=00:01:15.54 bitrate=1027.2kbits/s speed=0.636x    frame= 1838 fps= 15 q=31.0 size=    9728kB time=00:01:16.03 bitrate=1048.1kbits/s speed=0.638x    frame= 1851 fps= 15 q=31.0 size=    9728kB time=00:01:16.52 bitrate=1041.4kbits/s speed=0.639x    frame= 1865 fps= 16 q=31.0 size=    9728kB time=00:01:17.50 bitrate=1028.2kbits/s speed=0.644x    frame= 1878 fps= 16 q=31.0 size=    9728kB time=00:01:17.99 bitrate=1021.8kbits/s speed=0.646x    frame= 1891 fps= 16 q=31.0 size=    9728kB time=00:01:18.48 bitrate=1015.4kbits/s speed=0.647x    frame= 1903 fps= 16 q=31.0 size=    9728kB time=00:01:18.97 bitrate=1009.1kbits/s speed=0.648x    frame= 1914 fps= 16 q=31.0 size=    9728kB time=00:01:19.46 bitrate=1002.8kbits/s speed=0.649x    frame= 1927 fps= 16 q=31.0 size=    9728kB time=00:01:19.95 bitrate= 996.7kbits/s speed=0.65x    frame= 1936 fps= 16 q=31.0 size=    9728kB time=00:01:20.44 bitrate= 990.6kbits/s speed=0.652x    frame= 1945 fps= 16 q=31.0 size=    9728kB time=00:01:20.72 bitrate= 987.2kbits/s speed=0.651x    frame= 1960 fps= 16 q=31.0 size=    9728kB time=00:01:21.42 bitrate= 978.7kbits/s speed=0.654x    frame= 1972 fps= 16 q=31.0 size=    9728kB time=00:01:21.92 bitrate= 972.8kbits/s speed=0.656x    frame= 1984 fps= 16 q=31.0 size=    9984kB time=00:01:22.41 bitrate= 992.5kbits/s speed=0.657x    frame= 1995 fps= 16 q=31.0 size=    9984kB time=00:01:22.90 bitrate= 986.6kbits/s speed=0.658x    frame= 2004 fps= 16 q=31.0 size=    9984kB time=00:01:22.92 bitrate= 986.3kbits/s speed=0.655x    frame= 2015 fps= 16 q=31.0 size=    9984kB time=00:01:23.41 bitrate= 980.5kbits/s speed=0.656x    frame= 2023 fps= 16 q=31.0 size=    9984kB time=00:01:23.88 bitrate= 975.0kbits/s speed=0.657x    frame= 2029 fps= 16 q=31.0 size=    9984kB time=00:01:24.37 bitrate= 969.4kbits/s speed=0.658x    frame= 2034 fps= 16 q=31.0 size=    9984kB time=00:01:24.37 bitrate= 969.4kbits/s speed=0.655x    frame= 2039 fps= 16 q=31.0 size=    9984kB time=00:01:24.39 bitrate= 969.1kbits/s speed=0.652x    frame= 2048 fps= 16 q=31.0 size=   10240kB time=00:01:24.86 bitrate= 988.5kbits/s speed=0.653x    frame= 2058 fps= 16 q=31.0 size=   10240kB time=00:01:25.35 bitrate= 982.8kbits/s speed=0.654x    frame= 2068 fps= 16 q=31.0 size=   10240kB time=00:01:25.84 bitrate= 977.2kbits/s speed=0.655x    frame= 2078 fps= 16 q=31.0 size=   10240kB time=00:01:26.33 bitrate= 971.6kbits/s speed=0.656x    frame= 2085 fps= 16 q=31.0 size=   10240kB time=00:01:26.33 bitrate= 971.6kbits/s speed=0.653x    frame= 2091 fps= 16 q=31.0 size=   10240kB time=00:01:26.82 bitrate= 966.1kbits/s speed=0.654x    frame= 2098 fps= 16 q=31.0 size=   10240kB time=00:01:26.82 bitrate= 966.1kbits/s speed=0.652x    frame= 2107 fps= 16 q=31.0 size=   10240kB time=00:01:27.31 bitrate= 960.7kbits/s speed=0.653x    frame= 2116 fps= 16 q=31.0 size=   10240kB time=00:01:27.80 bitrate= 955.3kbits/s speed=0.654x    frame= 2125 fps= 16 q=31.0 size=   10240kB time=00:01:28.29 bitrate= 950.0kbits/s speed=0.655x    frame= 2139 fps= 16 q=31.0 size=   10240kB time=00:01:28.78 bitrate= 944.8kbits/s speed=0.656x    frame= 2151 fps= 16 q=31.0 size=   10240kB time=00:01:29.28 bitrate= 939.6kbits/s speed=0.657x    frame= 2163 fps= 16 q=31.0 size=   10496kB time=00:01:29.77 bitrate= 957.8kbits/s speed=0.658x    frame= 2173 fps= 16 q=31.0 size=   10496kB time=00:01:30.26 bitrate= 952.6kbits/s speed=0.659x    frame= 2182 fps= 16 q=31.0 size=   10496kB time=00:01:30.75 bitrate= 947.5kbits/s speed=0.66x    frame= 2192 fps= 16 q=31.0 size=   10496kB time=00:01:30.75 bitrate= 947.5kbits/s speed=0.658x    frame= 2203 fps= 16 q=31.0 size=   10496kB time=00:01:31.24 bitrate= 942.4kbits/s speed=0.659x    frame= 2213 fps= 16 q=31.0 size=   10496kB time=00:01:31.73 bitrate= 937.3kbits/s speed=0.66x    frame= 2225 fps= 16 q=31.0 size=   10496kB time=00:01:32.22 bitrate= 932.3kbits/s speed=0.661x    frame= 2238 fps= 16 q=31.0 size=   10496kB time=00:01:32.71 bitrate= 927.4kbits/s speed=0.662x    frame= 2251 fps= 16 q=31.0 size=   10496kB time=00:01:33.20 bitrate= 922.5kbits/s speed=0.663x    frame= 2262 fps= 16 q=31.0 size=   10496kB time=00:01:33.69 bitrate= 917.7kbits/s speed=0.664x    frame= 2274 fps= 16 q=31.0 size=   10496kB time=00:01:34.18 bitrate= 912.9kbits/s speed=0.665x    frame= 2285 fps= 16 q=31.0 size=   10496kB time=00:01:34.67 bitrate= 908.2kbits/s speed=0.666x    frame= 2295 fps= 16 q=31.0 size=   10752kB time=00:01:35.16 bitrate= 925.5kbits/s speed=0.667x    frame= 2304 fps= 16 q=31.0 size=   10752kB time=00:01:35.65 bitrate= 920.8kbits/s speed=0.668x    frame= 2316 fps= 16 q=31.0 size=   10752kB time=00:01:36.14 bitrate= 916.1kbits/s speed=0.669x    frame= 2326 fps= 16 q=31.0 size=   10752kB time=00:01:36.64 bitrate= 911.4kbits/s speed=0.67x    frame= 2336 fps= 16 q=31.0 size=   10752kB time=00:01:37.13 bitrate= 906.8kbits/s speed=0.671x    frame= 2347 fps= 16 q=31.0 size=   10752kB time=00:01:37.62 bitrate= 902.3kbits/s speed=0.672x    frame= 2359 fps= 16 q=31.0 size=   10752kB time=00:01:38.11 bitrate= 897.8kbits/s speed=0.673x    frame= 2371 fps= 16 q=31.0 size=   10752kB time=00:01:38.60 bitrate= 893.3kbits/s speed=0.673x    frame= 2380 fps= 16 q=31.0 size=   10752kB time=00:01:38.62 bitrate= 893.1kbits/s speed=0.671x    frame= 2392 fps= 16 q=31.0 size=   10752kB time=00:01:39.11 bitrate= 888.7kbits/s speed=0.672x    frame= 2406 fps= 16 q=31.0 size=   10752kB time=00:01:40.07 bitrate= 880.2kbits/s speed=0.676x    frame= 2418 fps= 16 q=31.0 size=   11008kB time=00:01:40.56 bitrate= 896.7kbits/s speed=0.677x    frame= 2431 fps= 16 q=31.0 size=   11008kB time=00:01:41.05 bitrate= 892.4kbits/s speed=0.678x    frame= 2442 fps= 16 q=31.0 size=   11008kB time=00:01:41.54 bitrate= 888.0kbits/s speed=0.679x    frame= 2451 fps= 16 q=31.0 size=   11008kB time=00:01:41.54 bitrate= 888.0kbits/s speed=0.677x    frame= 2459 fps= 16 q=31.0 size=   11008kB time=00:01:42.03 bitrate= 883.8kbits/s speed=0.678x    frame= 2467 fps= 16 q=31.0 size=   11008kB time=00:01:42.52 bitrate= 879.5kbits/s speed=0.679x    frame= 2473 fps= 16 q=31.0 size=   11008kB time=00:01:42.52 bitrate= 879.5kbits/s speed=0.676x    frame= 2478 fps= 16 q=31.0 size=   11008kB time=00:01:43.01 bitrate= 875.4kbits/s speed=0.677x    frame= 2483 fps= 16 q=31.0 size=   11264kB time=00:01:43.01 bitrate= 895.7kbits/s speed=0.674x    frame= 2488 fps= 16 q=31.0 size=   11264kB time=00:01:43.50 bitrate= 891.5kbits/s speed=0.675x    frame= 2493 fps= 16 q=31.0 size=   11264kB time=00:01:43.50 bitrate= 891.5kbits/s speed=0.673x    frame= 2498 fps= 16 q=31.0 size=   11264kB time=00:01:43.50 bitrate= 891.5kbits/s speed=0.67x    frame= 2503 fps= 16 q=31.0 size=   11264kB time=00:01:44.00 bitrate= 887.3kbits/s speed=0.671x    frame= 2510 fps= 16 q=31.0 size=   11264kB time=00:01:44.00 bitrate= 887.3kbits/s speed=0.668x    frame= 2517 fps= 16 q=31.0 size=   11520kB time=00:01:44.49 bitrate= 903.2kbits/s speed=0.669x    frame= 2523 fps= 16 q=31.0 size=   11520kB time=00:01:44.98 bitrate= 898.9kbits/s speed=0.67x    frame= 2530 fps= 16 q=31.0 size=   11520kB time=00:01:44.98 bitrate= 898.9kbits/s speed=0.668x    frame= 2536 fps= 16 q=31.0 size=   11520kB time=00:01:45.47 bitrate= 894.8kbits/s speed=0.669x    frame= 2545 fps= 16 q=31.0 size=   11520kB time=00:01:45.49 bitrate= 894.6kbits/s speed=0.667x    frame= 2554 fps= 16 q=31.0 size=   11520kB time=00:01:45.96 bitrate= 890.6kbits/s speed=0.668x    frame= 2563 fps= 16 q=31.0 size=   11520kB time=00:01:46.45 bitrate= 886.5kbits/s speed=0.669x    frame= 2573 fps= 16 q=31.0 size=   11520kB time=00:01:46.94 bitrate= 882.4kbits/s speed=0.669x    frame= 2583 fps= 16 q=31.0 size=   11520kB time=00:01:47.43 bitrate= 878.4kbits/s speed=0.67x    frame= 2592 fps= 16 q=31.0 size=   11520kB time=00:01:47.79 bitrate= 875.5kbits/s speed=0.67x    frame= 2604 fps= 16 q=31.0 size=   11776kB time=00:01:47.94 bitrate= 893.7kbits/s speed=0.669x    frame= 2618 fps= 16 q=31.0 size=   11776kB time=00:01:48.90 bitrate= 885.8kbits/s speed=0.673x    frame= 2628 fps= 16 q=31.0 size=   11776kB time=00:01:48.92 bitrate= 885.6kbits/s speed=0.671x    frame= 2640 fps= 16 q=31.0 size=   11776kB time=00:01:49.41 bitrate= 881.7kbits/s speed=0.672x    frame= 2649 fps= 16 q=31.0 size=   11776kB time=00:01:49.88 bitrate= 877.9kbits/s speed=0.672x    frame= 2657 fps= 16 q=31.0 size=   11776kB time=00:01:50.37 bitrate= 874.0kbits/s speed=0.673x    frame= 2667 fps= 16 q=31.0 size=   11776kB time=00:01:50.86 bitrate= 870.1kbits/s speed=0.674x    frame= 2677 fps= 16 q=31.0 size=   11776kB time=00:01:51.36 bitrate= 866.3kbits/s speed=0.675x    frame= 2687 fps= 16 q=31.0 size=   12032kB time=00:01:51.36 bitrate= 885.1kbits/s speed=0.673x    frame= 2698 fps= 16 q=31.0 size=   12032kB time=00:01:51.85 bitrate= 881.2kbits/s speed=0.673x    frame= 2710 fps= 16 q=31.0 size=   12032kB time=00:01:52.36 bitrate= 877.2kbits/s speed=0.674x    frame= 2722 fps= 16 q=31.0 size=   12032kB time=00:01:52.85 bitrate= 873.4kbits/s speed=0.675x    frame= 2736 fps= 16 q=31.0 size=   12032kB time=00:01:53.81 bitrate= 866.0kbits/s speed=0.679x    frame= 2748 fps= 16 q=31.0 size=   12032kB time=00:01:54.30 bitrate= 862.3kbits/s speed=0.679x    frame= 2760 fps= 16 q=31.0 size=   12032kB time=00:01:54.79 bitrate= 858.6kbits/s speed=0.68x    frame= 2772 fps= 16 q=31.0 size=   12032kB time=00:01:55.28 bitrate= 855.0kbits/s speed=0.681x    frame= 2786 fps= 16 q=31.0 size=   12032kB time=00:01:55.77 bitrate= 851.4kbits/s speed=0.682x    frame= 2801 fps= 16 q=31.0 size=   12032kB time=00:01:56.26 bitrate= 847.8kbits/s speed=0.683x    frame= 2813 fps= 16 q=31.0 size=   12032kB time=00:01:56.75 bitrate= 844.2kbits/s speed=0.683x    frame= 2826 fps= 16 q=31.0 size=   12032kB time=00:01:57.24 bitrate= 840.7kbits/s speed=0.684x    frame= 2838 fps= 17 q=31.0 size=   12032kB time=00:01:57.73 bitrate= 837.2kbits/s speed=0.685x    frame= 2851 fps= 17 q=31.0 size=   12032kB time=00:01:58.22 bitrate= 833.7kbits/s speed=0.686x    frame= 2863 fps= 17 q=31.0 size=   12032kB time=00:01:58.72 bitrate= 830.2kbits/s speed=0.687x    frame= 2877 fps= 17 q=31.0 size=   12288kB time=00:01:59.70 bitrate= 841.0kbits/s speed=0.69x    frame= 2891 fps= 17 q=31.0 size=   12288kB time=00:02:00.19 bitrate= 837.5kbits/s speed=0.691x    frame= 2903 fps= 17 q=31.0 size=   12288kB time=00:02:00.68 bitrate= 834.1kbits/s speed=0.692x    frame= 2916 fps= 17 q=31.0 size=   12288kB time=00:02:01.17 bitrate= 830.7kbits/s speed=0.692x    frame= 2929 fps= 17 q=31.0 size=   12288kB time=00:02:01.66 bitrate= 827.4kbits/s speed=0.693x    frame= 2942 fps= 17 q=31.0 size=   12288kB time=00:02:02.15 bitrate= 824.1kbits/s speed=0.694x    frame= 2955 fps= 17 q=31.0 size=   12288kB time=00:02:02.64 bitrate= 820.8kbits/s speed=0.695x    frame= 2969 fps= 17 q=31.0 size=   12288kB time=00:02:03.15 bitrate= 817.4kbits/s speed=0.696x    frame= 2984 fps= 17 q=31.0 size=   12288kB time=00:02:04.11 bitrate= 811.0kbits/s speed=0.699x    frame= 2999 fps= 17 q=31.0 size=   12288kB time=00:02:04.60 bitrate= 807.8kbits/s speed= 0.7x    frame= 3013 fps= 17 q=31.0 size=   12288kB time=00:02:05.09 bitrate= 804.7kbits/s speed= 0.7x    frame= 3026 fps= 17 q=31.0 size=   12288kB time=00:02:05.58 bitrate= 801.5kbits/s speed=0.701x    frame= 3038 fps= 17 q=31.0 size=   12288kB time=00:02:06.08 bitrate= 798.4kbits/s speed=0.702x    frame= 3052 fps= 17 q=31.0 size=   12288kB time=00:02:06.57 bitrate= 795.3kbits/s speed=0.702x    frame= 3066 fps= 17 q=31.0 size=   12288kB time=00:02:07.55 bitrate= 789.2kbits/s speed=0.706x    frame= 3081 fps= 17 q=31.0 size=   12288kB time=00:02:08.04 bitrate= 786.2kbits/s speed=0.706x    frame= 3094 fps= 17 q=31.0 size=   12288kB time=00:02:08.53 bitrate= 783.2kbits/s speed=0.707x    frame= 3108 fps= 17 q=31.0 size=   12544kB time=00:02:09.02 bitrate= 796.4kbits/s speed=0.708x    frame= 3120 fps= 17 q=31.0 size=   12544kB time=00:02:09.51 bitrate= 793.4kbits/s speed=0.708x    frame= 3131 fps= 17 q=31.0 size=   12544kB time=00:02:10.00 bitrate= 790.4kbits/s speed=0.709x    frame= 3143 fps= 17 q=31.0 size=   12544kB time=00:02:10.49 bitrate= 787.5kbits/s speed=0.71x    frame= 3155 fps= 17 q=31.0 size=   12544kB time=00:02:10.98 bitrate= 784.5kbits/s speed=0.71x    frame= 3166 fps= 17 q=31.0 size=   12544kB time=00:02:11.47 bitrate= 781.6kbits/s speed=0.711x    frame= 3178 fps= 17 q=31.0 size=   12544kB time=00:02:11.96 bitrate= 778.7kbits/s speed=0.712x    frame= 3189 fps= 17 q=31.0 size=   12544kB time=00:02:12.45 bitrate= 775.8kbits/s speed=0.712x    frame= 3202 fps= 17 q=31.0 size=   12544kB time=00:02:12.94 bitrate= 772.9kbits/s speed=0.713x    frame= 3215 fps= 17 q=31.0 size=   12544kB time=00:02:13.44 bitrate= 770.1kbits/s speed=0.714x    frame= 3227 fps= 17 q=31.0 size=   12544kB time=00:02:13.93 bitrate= 767.3kbits/s speed=0.714x    frame= 3240 fps= 17 q=31.0 size=   12544kB time=00:02:14.44 bitrate= 764.3kbits/s speed=0.715x    frame= 3254 fps= 17 q=31.0 size=   12544kB time=00:02:15.40 bitrate= 758.9kbits/s speed=0.718x    frame= 3269 fps= 17 q=31.0 size=   12544kB time=00:02:15.89 bitrate= 756.2kbits/s speed=0.719x    frame= 3283 fps= 17 q=31.0 size=   12544kB time=00:02:16.38 bitrate= 753.5kbits/s speed=0.719x    frame= 3296 fps= 17 q=31.0 size=   12544kB time=00:02:16.87 bitrate= 750.8kbits/s speed=0.72x    frame= 3307 fps= 17 q=31.0 size=   12800kB time=00:02:17.36 bitrate= 763.4kbits/s speed=0.721x    frame= 3319 fps= 17 q=31.0 size=   12800kB time=00:02:17.85 bitrate= 760.6kbits/s speed=0.721x    frame= 3331 fps= 17 q=31.0 size=   12800kB time=00:02:18.34 bitrate= 757.9kbits/s speed=0.722x    frame= 3343 fps= 17 q=31.0 size=   12800kB time=00:02:18.83 bitrate= 755.3kbits/s speed=0.722x    frame= 3355 fps= 17 q=31.0 size=   12800kB time=00:02:19.32 bitrate= 752.6kbits/s speed=0.723x    frame= 3368 fps= 17 q=31.0 size=   12800kB time=00:02:19.81 bitrate= 750.0kbits/s speed=0.724x    frame= 3380 fps= 17 q=31.0 size=   12800kB time=00:02:20.30 bitrate= 747.3kbits/s speed=0.724x    frame= 3391 fps= 17 q=31.0 size=   12800kB time=00:02:20.80 bitrate= 744.7kbits/s speed=0.725x    frame= 3402 fps= 17 q=31.0 size=   12800kB time=00:02:21.29 bitrate= 742.1kbits/s speed=0.725x    frame= 3413 fps= 17 q=31.0 size=   12800kB time=00:02:21.78 bitrate= 739.6kbits/s speed=0.726x    frame= 3424 fps= 17 q=31.0 size=   12800kB time=00:02:22.27 bitrate= 737.0kbits/s speed=0.727x    frame= 3436 fps= 18 q=31.0 size=   12800kB time=00:02:22.76 bitrate= 734.5kbits/s speed=0.727x    frame= 3450 fps= 18 q=31.0 size=   13056kB time=00:02:23.25 bitrate= 746.6kbits/s speed=0.728x    frame= 3464 fps= 18 q=31.0 size=   13056kB time=00:02:23.74 bitrate= 744.1kbits/s speed=0.728x    frame= 3478 fps= 18 q=31.0 size=   13056kB time=00:02:24.72 bitrate= 739.0kbits/s speed=0.731x    frame= 3492 fps= 18 q=31.0 size=   13056kB time=00:02:25.21 bitrate= 736.5kbits/s speed=0.732x    frame= 3507 fps= 18 q=31.0 size=   13056kB time=00:02:25.70 bitrate= 734.0kbits/s speed=0.733x    frame= 3522 fps= 18 q=31.0 size=   13056kB time=00:02:26.19 bitrate= 731.6kbits/s speed=0.733x    frame= 3537 fps= 18 q=31.0 size=   13056kB time=00:02:27.17 bitrate= 726.7kbits/s speed=0.736x    frame= 3551 fps= 18 q=31.0 size=   13056kB time=00:02:27.66 bitrate= 724.3kbits/s speed=0.737x    frame= 3565 fps= 18 q=31.0 size=   13056kB time=00:02:28.16 bitrate= 721.9kbits/s speed=0.737x    frame= 3580 fps= 18 q=31.0 size=   13056kB time=00:02:28.65 bitrate= 719.5kbits/s speed=0.738x    frame= 3584 fps= 18 q=31.0 Lsize=   13295kB time=00:02:29.39 bitrate= 729.0kbits/s speed=0.738x    
video:10847kB audio:2348kB subtitle:0kB other streams:0kB global headers:0kB muxing overhead: 0.760645%
[libx264 @ 0x55ea2302b980] frame I:30    Avg QP:13.80  size: 18221
[libx264 @ 0x55ea2302b980] frame P:1220  Avg QP:22.18  size:  5239
[libx264 @ 0x55ea2302b980] frame B:2334  Avg QP:21.72  size:  1786
[libx264 @ 0x55ea2302b980] consecutive B-frames: 10.2%  7.3%  5.2% 77.3%
[libx264 @ 0x55ea2302b980] mb I  I16..4: 63.3% 30.3%  6.4%
[libx264 @ 0x55ea2302b980] mb P  I16..4:  2.3%  3.9%  0.8%  P16..4:  5.3%  1.4%  0.6%  0.0%  0.0%    skip:85.8%
[libx264 @ 0x55ea2302b980] mb B  I16..4:  0.7%  0.4%  0.1%  B16..8:  4.3%  0.8%  0.1%  direct: 0.8%  skip:92.8%  L0:47.7% L1:47.9% BI: 4.4%
[libx264 @ 0x55ea2302b980] 8x8 transform intra:45.6% inter:47.0%
[libx264 @ 0x55ea2302b980] coded y,uvDC,uvAC intra: 15.2% 19.3% 7.5% inter: 0.8% 1.3% 0.3%
[libx264 @ 0x55ea2302b980] i16 v,h,dc,p: 64% 22%  7%  6%
[libx264 @ 0x55ea2302b980] i8 v,h,dc,ddl,ddr,vr,hd,vl,hu: 31% 16% 43%  2%  1%  2%  1%  1%  2%
[libx264 @ 0x55ea2302b980] i4 v,h,dc,ddl,ddr,vr,hd,vl,hu: 27% 22% 24%  4%  5%  5%  5%  4%  4%
[libx264 @ 0x55ea2302b980] i8c dc,h,v,p: 71% 15% 12%  2%
[libx264 @ 0x55ea2302b980] Weighted P-Frames: Y:2.2% UV:1.2%
[libx264 @ 0x55ea2302b980] ref P L0: 73.1% 26.9%
[libx264 @ 0x55ea2302b980] ref B L0: 84.6% 15.4%
[libx264 @ 0x55ea2302b980] ref B L1: 94.2%  5.8%
[libx264 @ 0x55ea2302b980] kb/s:595.00
[aac @ 0x55ea22ec8900] Qavg: 333.188
